<?xml version="1.0" standalone="no"?>
<!DOCTYPE svg PUBLIC "-//W3C//DTD SVG 20010904//EN"
 "http://www.w3.org/TR/2001/REC-SVG-20010904/DTD/svg10.dtd">
<svg version="1.0" xmlns="http://www.w3.org/2000/svg"
 width="450.000000pt" height="277.000000pt" viewBox="0 0 450.000000 277.000000"
 preserveAspectRatio="xMidYMid meet">

<g transform="translate(0.000000,277.000000) scale(0.100000,-0.100000)"
fill="#000000" stroke="none">
<path d="M1778 2472 c-301 -119 -548 -219 -548 -222 0 -3 58 -29 128 -58 l127
-52 -7 -118 c-3 -64 -7 -120 -7 -123 -1 -3 -17 -22 -36 -42 -39 -40 -41 -50
-21 -89 13 -25 12 -37 -10 -120 -14 -51 -27 -103 -28 -115 -1 -12 -36 -60 -76
-108 -92 -106 -139 -179 -206 -320 -48 -101 -104 -257 -104 -290 0 -15 -18
-20 -136 -35 -84 -11 -195 -39 -233 -59 -18 -10 -21 -21 -21 -67 0 -48 -2 -55
-17 -50 -68 19 -261 12 -284 -11 -4 -4 19 -53 53 -107 l61 -99 -57 -107 c-31
-59 -56 -112 -56 -118 0 -8 9 -8 31 0 49 17 143 3 284 -43 142 -45 259 -61
299 -40 42 23 57 65 64 179 l7 107 115 11 c385 38 1333 56 1880 35 288 -11
670 -36 698 -46 8 -3 12 -31 12 -92 0 -108 13 -156 48 -184 42 -33 152 -22
317 30 142 46 235 60 284 43 17 -6 31 -8 31 -5 0 3 -26 57 -59 118 l-59 112
61 97 c46 75 57 100 48 109 -8 8 -58 12 -157 12 l-144 0 0 53 0 53 -44 20
c-54 23 -152 44 -311 64 -66 9 -122 19 -126 23 -4 4 -14 34 -24 67 -31 109
-135 312 -154 301 -5 -3 -11 7 -15 22 -3 15 -22 45 -42 67 l-36 40 5 -30 c2
-16 8 -38 12 -47 7 -17 4 -17 -36 -3 -46 17 -59 14 -39 -10 13 -16 12 -16 -42
-20 -9 0 -26 -9 -38 -20 -17 -16 -24 -17 -41 -7 -17 11 -19 9 -19 -9 0 -11
-14 -34 -32 -51 l-32 -30 -19 24 -19 23 36 3 c21 2 36 8 34 14 -5 15 -129 78
-154 78 -43 0 -84 -31 -110 -83 -15 -29 -39 -64 -56 -80 -40 -37 -37 -82 5
-82 30 0 47 -18 47 -50 0 -18 -2 -18 -20 5 -20 25 -25 19 -21 -22 1 -10 -4
-18 -12 -18 -7 0 -24 -11 -37 -25 l-23 -25 -289 0 c-190 0 -287 3 -283 10 3 6
16 10 29 10 35 0 86 20 86 35 0 7 -6 18 -14 24 -8 7 -17 23 -20 36 -3 13 -11
36 -16 50 -9 24 -11 25 -26 11 -19 -20 -34 -12 -34 16 0 25 -27 47 -56 48 -15
0 -24 -10 -32 -37 -7 -21 -11 -47 -10 -58 2 -12 -5 -23 -19 -30 -12 -5 -25
-22 -29 -37 -7 -34 -24 -27 -24 10 0 19 -8 31 -25 40 -14 6 -36 18 -50 25 -32
16 -31 33 4 88 30 47 124 112 102 70 -15 -27 -15 -28 18 -28 28 0 28 0 12 29
-15 27 -15 30 1 39 31 17 50 42 45 58 -3 12 3 16 24 16 22 0 31 -7 44 -38 16
-36 16 -39 -1 -58 -9 -10 -25 -19 -35 -19 -10 0 -21 -4 -24 -10 -3 -6 4 -10
16 -10 12 0 33 -12 47 -27 17 -19 27 -23 30 -15 3 10 7 10 20 0 14 -12 15 -9
9 24 -4 29 -3 36 8 32 8 -3 21 -2 30 3 14 8 14 12 -4 35 -11 13 -18 33 -15 44
3 12 -5 30 -21 46 -21 23 -30 44 -34 80 -1 8 -49 -5 -82 -22 l-23 -13 18 27
c27 42 8 46 -25 6 -33 -39 -35 -47 -14 -70 13 -14 13 -19 -1 -38 -18 -25 -34
-29 -34 -7 0 8 -5 15 -11 15 -21 0 2 93 28 114 17 13 21 22 14 29 -15 15 -37
-7 -63 -64 -13 -30 -27 -48 -34 -45 -14 6 -37 -18 -27 -27 3 -4 -8 -7 -26 -7
-19 0 -34 6 -37 15 -4 8 -13 15 -21 15 -8 0 -12 -4 -8 -9 3 -6 -3 -15 -13 -20
-16 -8 -25 -4 -51 28 -18 21 -50 47 -71 57 -24 12 -36 24 -32 32 4 12 1 12
-16 3 -11 -6 -29 -11 -39 -12 -20 0 -105 -96 -164 -185 -30 -46 -37 -64 -33
-92 2 -20 8 -40 13 -46 4 -6 11 -31 15 -56 4 -24 12 -50 18 -57 9 -11 7 -12
-8 -7 -19 7 -19 7 0 -14 14 -16 16 -27 9 -49 l-10 -28 -127 -9 c-70 -4 -130
-6 -132 -3 -10 9 66 218 106 296 85 163 256 355 409 460 318 217 681 282 1056
190 374 -92 695 -365 851 -724 17 -38 37 -92 44 -118 7 -26 15 -45 17 -43 7 7
-31 121 -66 196 -125 272 -343 511 -590 646 l-53 29 6 122 6 123 -67 34 c-114
57 -278 103 -428 120 -18 2 -11 4 18 5 105 3 272 -34 403 -90 l71 -30 234 92
c129 50 237 95 242 98 4 4 -19 18 -50 31 -32 13 -278 115 -547 227 -269 112
-494 203 -500 203 -6 0 -257 -98 -558 -218z m-146 -394 l78 -32 -2 -150 -3
-149 -80 -48 -80 -47 -9 46 c-6 31 -5 51 3 64 13 21 15 60 3 73 -10 11 -3 275
6 275 3 0 41 -14 84 -32z m1388 -1248 c538 -21 899 -63 1001 -116 22 -11 27
-21 27 -48 l0 -35 -29 14 c-15 8 -32 15 -36 15 -4 -1 9 -10 30 -21 37 -20 54
-57 20 -45 -17 6 -17 5 0 -8 22 -17 23 -40 0 -32 -16 6 -16 6 0 -12 20 -22 23
-46 5 -36 -10 6 -10 4 0 -7 6 -7 12 -19 12 -27 0 -12 -4 -11 -25 2 -13 9 -28
16 -32 16 -4 0 6 -9 23 -20 30 -19 31 -23 32 -94 l1 -75 -35 15 c-143 60 -544
96 -1262 115 -933 24 -1934 -32 -2106 -118 -28 -14 -29 -14 -23 6 3 12 1 24
-5 27 -5 3 -2 14 8 25 17 19 17 20 -2 12 -18 -7 -18 -6 -1 20 10 16 13 26 6
25 -14 -4 -18 32 -9 83 4 22 4 39 -1 39 -16 0 4 31 30 46 24 14 13 13 -24 -2
-24 -10 -17 13 11 35 15 12 22 21 16 21 -6 0 -14 -6 -19 -12 -5 -9 -10 -3 -13
17 -11 52 22 72 157 99 163 33 606 70 928 79 277 8 1091 6 1315 -3z m-2432
-243 c9 -6 12 -55 12 -185 0 -122 4 -185 13 -202 21 -43 58 -38 183 25 65 32
123 55 136 53 21 -3 23 -8 23 -71 0 -65 -2 -70 -34 -99 -32 -29 -37 -30 -95
-25 -34 4 -119 25 -191 47 -139 44 -230 61 -284 52 l-34 -5 57 106 57 105 -61
96 c-33 52 -60 97 -60 100 0 16 253 18 278 3z m3759 -1 c4 -4 1 -17 -7 -29 -7
-12 -34 -55 -59 -96 l-46 -74 53 -97 c28 -54 52 -100 52 -103 0 -3 -28 -5 -62
-5 -73 -1 -101 -7 -260 -55 -234 -72 -291 -60 -313 70 -8 49 7 83 36 83 11 0
68 -25 127 -55 185 -94 191 -89 194 170 l3 190 30 7 c37 9 242 4 252 -6z
m-3387 -261 c0 -32 -2 -35 -24 -29 -16 4 -52 -10 -122 -47 -115 -60 -150 -72
-174 -59 -22 12 -31 65 -14 89 20 28 202 77 302 80 30 1 32 -1 32 -34z m2877
19 c54 -8 122 -25 153 -37 46 -19 55 -26 58 -50 2 -16 -4 -39 -13 -53 -20 -31
-40 -27 -168 39 -66 35 -109 51 -132 50 -33 -1 -35 1 -35 33 0 41 0 41 137 18z"/>
<path d="M2037 774 c-3 -4 -1 -16 5 -27 6 -12 9 -54 6 -104 l-4 -83 33 0 c32
0 46 21 23 35 -5 3 -10 23 -10 43 l1 37 26 -50 26 -50 23 50 24 50 -5 -57 -5
-58 30 0 c33 0 52 26 30 40 -10 6 -12 30 -8 94 l6 86 -27 0 c-23 0 -30 -7 -45
-50 -10 -27 -22 -50 -26 -50 -4 0 -17 23 -29 50 -17 39 -26 50 -45 50 -12 0
-26 -3 -29 -6z"/>
<path d="M2260 760 c0 -11 6 -20 13 -20 19 0 48 -111 41 -149 -6 -29 -5 -31
24 -31 35 0 49 15 33 34 -14 17 16 135 36 143 7 3 13 14 13 24 0 15 -7 19 -36
19 -31 0 -35 -3 -34 -22 4 -42 0 -59 -11 -52 -6 4 -8 20 -4 40 l6 34 -41 0
c-33 0 -40 -3 -40 -20z"/>
<path d="M2567 765 c-49 -25 -38 -84 23 -115 22 -11 40 -27 40 -34 0 -25 -28
-25 -55 0 -32 30 -45 24 -45 -22 l0 -34 55 0 c47 0 57 3 71 25 22 34 8 66 -45
100 -27 17 -39 30 -35 40 8 21 32 19 46 -5 7 -11 21 -20 30 -20 14 0 18 8 18
34 0 32 -2 34 -41 38 -23 2 -50 -1 -62 -7z"/>
<path d="M1876 738 c5 -18 8 -68 8 -112 l-1 -78 71 6 c39 3 72 6 74 6 1 0 2 9
2 20 0 23 -31 41 -38 22 -2 -7 -17 -12 -33 -12 -24 0 -29 4 -29 25 0 18 5 25
19 25 38 0 34 34 -4 41 -13 3 -20 12 -20 28 0 19 6 25 25 26 14 1 28 -2 31 -8
11 -16 39 0 39 23 0 18 -6 20 -76 20 l-76 0 8 -32z"/>
<path d="M2706 751 c-25 -27 -28 -153 -4 -177 25 -25 77 -22 100 5 10 13 18
27 18 32 0 15 -32 10 -52 -8 -17 -15 -20 -15 -35 -1 -12 13 -14 28 -9 72 7 51
10 56 32 56 15 0 24 -6 24 -15 0 -8 9 -15 20 -15 11 0 20 6 20 13 0 6 3 22 6
35 6 21 3 22 -48 22 -41 0 -59 -5 -72 -19z"/>
<path d="M2843 754 c-3 -10 -2 -19 3 -21 11 -4 6 -135 -7 -147 -20 -21 -9 -36
26 -36 l35 0 -7 47 c-5 41 -4 46 11 40 10 -4 24 -7 31 -7 11 0 12 -7 4 -32
-14 -50 -11 -58 19 -58 l27 0 2 87 c1 54 6 89 14 94 22 13 1 39 -31 39 l-31 0
7 -45 6 -45 -31 0 c-24 0 -31 4 -31 20 0 11 5 29 12 40 14 23 12 26 -24 35
-22 6 -29 3 -35 -11z"/>
<path d="M1637 753 c-22 -4 -27 -8 -21 -21 12 -30 27 -130 21 -146 -10 -25
-46 -20 -51 7 -12 56 -14 115 -6 123 17 17 -6 37 -35 30 -22 -6 -26 -11 -20
-29 4 -12 10 -50 14 -84 3 -35 13 -69 21 -77 27 -26 64 -29 91 -7 22 18 24 26
24 115 1 53 -2 95 -5 95 -3 -1 -18 -4 -33 -6z"/>
<path d="M1700 740 c0 -11 5 -20 11 -20 8 0 10 -26 7 -90 l-5 -90 34 0 c48 0
100 24 108 50 10 33 -4 132 -22 153 -12 12 -32 17 -75 17 -51 0 -58 -2 -58
-20z m98 -18 c7 -5 15 -32 19 -60 6 -56 -6 -82 -38 -82 -17 0 -19 8 -19 68 0
80 7 93 38 74z"/>
<path d="M3050 732 c-31 -25 -47 -134 -25 -168 28 -43 90 -40 115 5 5 11 11
47 12 81 3 55 0 64 -21 81 -29 24 -52 24 -81 1z m64 -39 c3 -10 2 -40 -2 -68
-5 -37 -12 -51 -26 -53 -10 -2 -22 2 -27 9 -7 12 -3 85 7 117 5 18 42 15 48
-5z"/>
<path d="M858 733 c7 -3 16 -2 19 1 4 3 -2 6 -13 5 -11 0 -14 -3 -6 -6z"/>
<path d="M3208 725 c-28 -16 -37 -41 -40 -117 -2 -57 21 -88 64 -88 43 0 64
29 72 99 6 49 4 68 -9 87 -8 13 -19 24 -24 24 -5 0 -15 2 -23 5 -7 2 -25 -2
-40 -10z m52 -40 c8 -10 10 -30 5 -62 -9 -60 -21 -76 -46 -63 -15 9 -17 18
-12 63 8 72 27 94 53 62z"/>
<path d="M3788 733 c7 -3 16 -2 19 1 4 3 -2 6 -13 5 -11 0 -14 -3 -6 -6z"/>
<path d="M798 723 c7 -3 16 -2 19 1 4 3 -2 6 -13 5 -11 0 -14 -3 -6 -6z"/>
<path d="M1385 710 c-15 -17 -17 -30 -11 -87 4 -39 14 -75 23 -85 21 -23 75
-23 96 0 30 33 18 162 -16 184 -23 15 -74 8 -92 -12z m73 -22 c17 -17 16 -124
-1 -131 -26 -10 -38 10 -44 67 -5 44 -3 60 8 67 18 12 23 11 37 -3z"/>
<path d="M1275 673 c6 -45 5 -46 -8 -24 -8 13 -12 32 -9 43 4 15 -2 18 -31 18
-44 0 -54 -13 -28 -37 26 -24 73 -131 61 -138 -18 -11 3 -35 31 -35 22 0 29 5
29 19 0 11 -4 22 -8 25 -13 8 11 139 26 144 6 2 12 10 12 18 0 10 -12 14 -41
14 l-40 0 6 -47z"/>
<path d="M3340 718 c-1 -2 -2 -41 -4 -87 -2 -53 -8 -86 -16 -91 -20 -12 -4
-40 23 -40 13 0 45 -3 71 -6 45 -7 46 -6 46 20 0 25 -3 26 -42 24 l-43 -3 3
70 c1 39 7 72 12 73 6 2 10 12 10 23 0 14 -7 19 -30 19 -16 0 -30 -1 -30 -2z"/>
<path d="M793 683 c9 -2 23 -2 30 0 6 3 -1 5 -18 5 -16 0 -22 -2 -12 -5z"/>
<path d="M3843 683 c9 -2 25 -2 35 0 9 3 1 5 -18 5 -19 0 -27 -2 -17 -5z"/>
<path d="M738 673 c7 -3 16 -2 19 1 4 3 -2 6 -13 5 -11 0 -14 -3 -6 -6z"/>
<path d="M3908 673 c6 -2 18 -2 25 0 6 3 1 5 -13 5 -14 0 -19 -2 -12 -5z"/>
<path d="M878 653 c6 -2 18 -2 25 0 6 3 1 5 -13 5 -14 0 -19 -2 -12 -5z"/>
<path d="M3763 653 c9 -2 23 -2 30 0 6 3 -1 5 -18 5 -16 0 -22 -2 -12 -5z"/>
<path d="M775 640 c-27 -7 -27 -8 -5 -8 14 0 36 4 50 8 20 6 21 8 5 8 -11 0
-33 -4 -50 -8z"/>
<path d="M3828 643 c6 -2 18 -2 25 0 6 3 1 5 -13 5 -14 0 -19 -2 -12 -5z"/>
<path d="M3888 633 c7 -3 16 -2 19 1 4 3 -2 6 -13 5 -11 0 -14 -3 -6 -6z"/>
<path d="M695 620 c-13 -5 -14 -9 -5 -9 8 0 24 4 35 9 13 5 14 9 5 9 -8 0 -24
-4 -35 -9z"/>
<path d="M3928 623 c7 -3 16 -2 19 1 4 3 -2 6 -13 5 -11 0 -14 -3 -6 -6z"/>
<path d="M3975 610 c27 -12 43 -12 25 0 -8 5 -22 9 -30 9 -10 0 -8 -3 5 -9z"/>
<path d="M818 603 c6 -2 18 -2 25 0 6 3 1 5 -13 5 -14 0 -19 -2 -12 -5z"/>
<path d="M3818 603 c6 -2 18 -2 25 0 6 3 1 5 -13 5 -14 0 -19 -2 -12 -5z"/>
<path d="M758 593 c7 -3 16 -2 19 1 4 3 -2 6 -13 5 -11 0 -14 -3 -6 -6z"/>
<path d="M3898 593 c7 -3 16 -2 19 1 4 3 -2 6 -13 5 -11 0 -14 -3 -6 -6z"/>
<path d="M3808 563 c7 -3 16 -2 19 1 4 3 -2 6 -13 5 -11 0 -14 -3 -6 -6z"/>
<path d="M788 553 c7 -3 16 -2 19 1 4 3 -2 6 -13 5 -11 0 -14 -3 -6 -6z"/>
<path d="M838 523 c7 -3 16 -2 19 1 4 3 -2 6 -13 5 -11 0 -14 -3 -6 -6z"/>
<path d="M3808 523 c7 -3 16 -2 19 1 4 3 -2 6 -13 5 -11 0 -14 -3 -6 -6z"/>
<path d="M773 513 c9 -2 23 -2 30 0 6 3 -1 5 -18 5 -16 0 -22 -2 -12 -5z"/>
<path d="M3868 513 c6 -2 18 -2 25 0 6 3 1 5 -13 5 -14 0 -19 -2 -12 -5z"/>
<path d="M728 503 c7 -3 16 -2 19 1 4 3 -2 6 -13 5 -11 0 -14 -3 -6 -6z"/>
<path d="M3930 500 c34 -11 60 -11 35 0 -11 5 -29 8 -40 8 -16 0 -15 -2 5 -8z"/>
<path d="M644 474 c-18 -14 -18 -14 6 -3 31 14 36 19 24 19 -6 0 -19 -7 -30
-16z"/>
<path d="M863 483 c9 -2 23 -2 30 0 6 3 -1 5 -18 5 -16 0 -22 -2 -12 -5z"/>
<path d="M3773 483 c9 -2 23 -2 30 0 6 3 -1 5 -18 5 -16 0 -22 -2 -12 -5z"/>
<path d="M798 473 c6 -2 18 -2 25 0 6 3 1 5 -13 5 -14 0 -19 -2 -12 -5z"/>
<path d="M3848 473 c7 -3 16 -2 19 1 4 3 -2 6 -13 5 -11 0 -14 -3 -6 -6z"/>
<path d="M748 463 c6 -2 18 -2 25 0 6 3 1 5 -13 5 -14 0 -19 -2 -12 -5z"/>
<path d="M3898 463 c7 -3 16 -2 19 1 4 3 -2 6 -13 5 -11 0 -14 -3 -6 -6z"/>
<path d="M685 450 c-13 -5 -14 -9 -5 -9 8 0 24 4 35 9 13 5 14 9 5 9 -8 0 -24
-4 -35 -9z"/>
<path d="M808 433 c6 -2 18 -2 25 0 6 3 1 5 -13 5 -14 0 -19 -2 -12 -5z"/>
<path d="M3838 433 c6 -2 18 -2 25 0 6 3 1 5 -13 5 -14 0 -19 -2 -12 -5z"/>
<path d="M4000 436 c0 -2 7 -7 16 -10 8 -3 12 -2 9 4 -6 10 -25 14 -25 6z"/>
<path d="M3908 423 c7 -3 16 -2 19 1 4 3 -2 6 -13 5 -11 0 -14 -3 -6 -6z"/>
<path d="M888 403 c7 -3 16 -2 19 1 4 3 -2 6 -13 5 -11 0 -14 -3 -6 -6z"/>
<path d="M3758 403 c7 -3 16 -2 19 1 4 3 -2 6 -13 5 -11 0 -14 -3 -6 -6z"/>
<path d="M4000 396 c0 -2 7 -7 16 -10 8 -3 12 -2 9 4 -6 10 -25 14 -25 6z"/>
<path d="M2290 1668 c-25 -5 -52 -11 -60 -12 -27 -4 -39 -16 -33 -34 9 -25 24
-31 55 -25 18 4 28 1 28 -7 0 -8 -15 -10 -47 -8 -41 3 -48 7 -51 26 -4 28 -13
28 -44 -3 -19 -18 -24 -32 -20 -55 3 -25 8 -29 23 -25 17 6 18 4 8 -19 -7 -14
-18 -26 -26 -26 -28 0 -11 -19 24 -26 30 -6 40 -3 53 13 9 11 26 25 38 32 12
6 22 18 22 25 0 8 10 16 23 20 32 8 137 77 137 90 0 11 -64 47 -78 45 -4 -1
-27 -6 -52 -11z"/>
<path d="M2606 1641 c-4 -6 -16 -11 -26 -11 -11 0 -27 -12 -36 -26 -15 -22
-18 -24 -27 -9 -8 15 -10 15 -23 -2 -12 -17 -13 -17 -14 0 0 22 -30 22 -61 -1
-13 -10 -37 -24 -54 -31 -18 -8 -25 -16 -17 -18 19 -7 -5 -33 -32 -33 -11 0
-28 -5 -36 -10 -13 -9 -13 -12 3 -24 21 -16 22 -26 1 -26 -26 0 -9 -24 24 -34
37 -10 57 -51 49 -101 -3 -19 -2 -35 4 -35 5 0 9 -7 9 -15 0 -8 -5 -15 -12
-15 -6 0 -4 -6 7 -13 17 -13 17 -15 -5 -37 -20 -20 -21 -28 -15 -79 5 -44 12
-61 33 -78 l26 -22 25 44 c26 44 118 114 151 115 26 0 80 39 80 57 0 9 -8 26
-17 37 -17 20 -17 20 1 6 18 -14 19 -13 13 2 -4 12 1 21 15 29 16 9 19 17 15
46 -5 28 -3 34 8 29 17 -6 19 2 6 22 -9 15 30 98 56 118 14 9 15 16 7 24 -9 9
-20 7 -45 -6 -33 -16 -33 -16 -19 1 14 17 13 18 -5 13 -11 -3 -26 1 -33 8 -9
10 -6 13 18 16 l30 3 -23 27 c-26 30 -71 46 -81 29z m39 -411 c3 -5 1 -10 -4
-10 -6 0 -11 5 -11 10 0 6 2 10 4 10 3 0 8 -4 11 -10z"/>
<path d="M1400 327 c0 -19 -4 -24 -18 -20 -25 6 -44 -20 -40 -54 3 -25 7 -28
39 -28 l36 -1 2 57 c1 32 -3 60 -9 64 -6 4 -10 -4 -10 -18z m-5 -62 c0 -23 -4
-30 -20 -30 -21 0 -31 25 -21 51 11 28 41 12 41 -21z"/>
<path d="M1180 280 l0 -60 38 2 c36 1 36 1 5 5 -27 4 -33 9 -33 28 0 19 6 24
33 28 l32 4 -32 1 c-25 2 -33 7 -33 21 0 15 8 21 33 24 31 4 31 4 -5 5 l-38 2
0 -60z"/>
<path d="M2660 311 c-15 -38 4 -84 38 -89 24 -4 52 13 52 31 0 5 -9 2 -21 -9
-30 -27 -54 -8 -54 42 0 35 3 39 28 42 15 2 27 -1 27 -7 0 -6 5 -11 11 -11 8
0 8 5 -1 15 -7 8 -25 15 -40 15 -21 0 -30 -7 -40 -29z"/>
<path d="M1992 313 c-8 -8 -9 -13 -2 -13 5 0 10 -18 10 -40 0 -32 4 -40 18
-39 10 0 12 3 5 6 -15 5 -18 70 -4 75 5 2 4 8 -3 14 -8 8 -15 7 -24 -3z"/>
<path d="M3173 319 c-5 -5 -7 -28 -4 -52 5 -32 11 -42 26 -44 11 -2 14 0 8 3
-15 6 -18 71 -4 76 5 2 3 8 -4 15 -8 7 -16 8 -22 2z"/>
<path d="M1514 270 c1 -44 2 -45 34 -46 31 -1 32 0 32 43 0 28 -4 42 -10 38
-6 -4 -10 -12 -9 -18 5 -39 -2 -58 -18 -55 -12 2 -20 16 -24 43 l-7 40 2 -45z"/>
<path d="M1684 302 c-18 -12 -24 -42 -14 -63 13 -24 43 -25 61 -1 13 15 12 16
-3 3 -24 -18 -48 -7 -48 24 0 31 24 42 48 24 15 -13 16 -12 3 4 -14 18 -29 21
-47 9z"/>
<path d="M1835 300 c-4 -7 2 -9 19 -4 24 6 26 4 23 -27 -2 -23 -8 -35 -20 -37
-20 -4 -24 24 -4 31 7 4 6 6 -4 6 -18 1 -33 -25 -24 -40 3 -4 21 -8 40 -7 33
1 35 3 32 33 -2 18 -7 37 -11 43 -9 15 -43 16 -51 2z"/>
<path d="M2123 265 c0 -27 2 -38 4 -22 2 15 2 37 0 50 -2 12 -4 0 -4 -28z"/>
<path d="M2230 284 c-7 -17 -7 -32 0 -45 20 -36 70 -17 70 26 0 47 -54 62 -70
19z m55 -19 c0 -23 -4 -30 -20 -30 -21 0 -31 25 -21 51 11 28 41 12 41 -21z"/>
<path d="M2390 265 c0 -27 2 -46 4 -44 8 8 10 78 3 85 -4 4 -7 -14 -7 -41z"/>
<path d="M2432 298 c9 -7 19 -29 21 -48 3 -26 4 -24 3 10 -1 36 -5 45 -21 48
-18 4 -19 3 -3 -10z"/>
<path d="M2854 302 c-33 -22 -18 -82 20 -82 14 0 27 4 31 9 3 6 -7 9 -21 8
-15 -1 -29 4 -31 11 -3 8 6 12 26 12 32 0 41 16 19 38 -14 14 -28 15 -44 4z
m44 -19 c2 -8 -6 -13 -22 -13 -25 0 -33 10 -19 24 10 10 36 3 41 -11z"/>
<path d="M3000 265 c0 -27 2 -46 4 -44 8 8 10 78 3 85 -4 4 -7 -14 -7 -41z"/>
<path d="M3042 298 c9 -7 19 -29 21 -48 3 -26 4 -24 3 10 -1 36 -5 45 -21 48
-18 4 -19 3 -3 -10z"/>
<path d="M3302 298 c-27 -27 -7 -78 29 -78 10 0 20 4 23 9 3 4 -5 6 -18 4 -15
-3 -25 1 -29 11 -5 13 1 16 28 16 38 0 40 2 25 31 -12 21 -40 25 -58 7z m46
-15 c2 -8 -6 -13 -22 -13 -19 0 -24 4 -19 15 6 18 34 16 41 -2z"/>
<path d="M3462 260 c1 -40 2 -41 5 -11 3 19 12 41 21 47 15 12 15 13 -5 11
-21 -1 -23 -6 -21 -47z"/>
</g>
</svg>
